<svg width="113" height="40" viewBox="0 0 113 40" fill="none" xmlns="http://www.w3.org/2000/svg">
<path d="M22.4235 39.6028L7.96775 21.9574V39.6028H0V0H7.96775V17.7589L22.4235 0H32.0418L15.6509 19.6312L32.4971 39.6028H22.4235Z" fill="black"/>
<path d="M61.4704 0V27.8014C61.4704 31.6596 60.3511 34.6667 58.1126 36.8227C55.874 38.9409 52.8766 40 49.1204 40C45.3262 40 42.253 38.9031 39.9006 36.7092C37.5861 34.5154 36.4289 31.4515 36.4289 27.5177H44.3967C44.4346 29.2199 44.833 30.5437 45.5918 31.4894C46.3886 32.435 47.5268 32.9078 49.0066 32.9078C50.4484 32.9078 51.5487 32.4539 52.3075 31.5461C53.0663 30.6383 53.4458 29.3901 53.4458 27.8014V0H61.4704Z" fill="black"/>
<path d="M94.4975 0V27.8014C94.4975 31.6596 93.3782 34.6667 91.1396 36.8227C88.9011 38.9409 85.9037 40 82.1475 40C78.3533 40 75.28 38.9031 72.9276 36.7092C70.6132 34.5154 69.456 31.4515 69.456 27.5177H77.4237C77.4616 29.2199 77.86 30.5437 78.6189 31.4894C79.4157 32.435 80.5539 32.9078 82.0336 32.9078C83.4754 32.9078 84.5757 32.4539 85.3346 31.5461C86.0934 30.6383 86.4728 29.3901 86.4728 27.8014V0H94.4975Z" fill="black"/>
<path d="M107.89 40C106.448 40 105.253 39.565 104.304 38.695C103.394 37.7872 102.938 36.6714 102.938 35.3475C102.938 34.0236 103.394 32.9267 104.304 32.0567C105.253 31.1489 106.448 30.695 107.89 30.695C109.294 30.695 110.451 31.1489 111.361 32.0567C112.272 32.9267 112.727 34.0236 112.727 35.3475C112.727 36.6714 112.272 37.7872 111.361 38.695C110.451 39.565 109.294 40 107.89 40Z" fill="#6DAEDB"/>
</svg>
